<svg width="477" height="475" viewBox="0 0 477 475" fill="none" xmlns="http://www.w3.org/2000/svg">
<g opacity="0.4">
<path d="M292.183 283.35L383.833 327.017L586.455 277.528L499.505 256.18L292.183 283.35Z" fill="#3D4877" stroke="#3D4877"/>
<path d="M422.225 262.973L465.784 257.627L466.866 123.985L421.955 112.079L422.225 262.973Z" fill="#3D4877" stroke="#3D4877"/>
<path d="M314.116 384.27L314.9 305.184L325.344 309.793V393.003L314.116 384.27Z" fill="#3D4877" stroke="#3D4877"/>
<path d="M290.094 291.113V283.836L384.094 327.26L383.31 340.845L290.094 291.113Z" fill="#3D4877" stroke="#3D4877"/>
<path d="M47.261 260.304V351.277L154.577 336.236V255.695L47.261 260.304Z" fill="#3D4877" stroke="#3D4877"/>
<path d="M155.1 243.08V254.967L414.383 243.08L394.016 235.559L155.1 243.08Z" fill="#3D4877" stroke="#3D4877"/>
<path d="M298.188 96.7953V173.455L404.983 182.916V122.995L298.188 96.7953Z" fill="#3D4877" stroke="#3D4877"/>
<line y1="-2" x2="422.575" y2="-2" transform="matrix(0.971345 0.237672 -0.272715 0.962095 0 24.2594)" stroke="#3D4877" stroke-width="4"/>
<line y1="-2" x2="386.212" y2="-2" transform="matrix(0.00270433 0.999996 -0.999997 0.00233438 45.4331 0)" stroke="#3D4877" stroke-width="4"/>
<line y1="-2" x2="162.592" y2="-2" transform="matrix(0.989252 0.146221 -0.168777 0.985654 0 107.227)" stroke="#3D4877" stroke-width="4"/>
<line y1="-2" x2="341.088" y2="-2" transform="matrix(0.00152023 0.999999 -0.999999 0.00131227 153.533 27.6559)" stroke="#3D4877" stroke-width="4"/>
<line y1="-2" x2="393.077" y2="-2" transform="matrix(0.999066 -0.0432017 0.0500322 0.998748 29.2444 261.517)" stroke="#3D4877" stroke-width="4"/>
<line y1="-2" x2="125.578" y2="-2" transform="matrix(0.989729 -0.142954 0.165034 0.986288 30.2886 355.158)" stroke="#3D4877" stroke-width="4"/>
<line y1="-2" x2="334.914" y2="-2" transform="matrix(0.999486 -0.0320713 0.0371473 0.99931 60.0554 246.961)" stroke="#3D4877" stroke-width="4"/>
<line y1="-2" x2="166.703" y2="-2" transform="matrix(0.996181 0.087315 -0.101021 0.994884 254.322 170.786)" stroke="#3D4877" stroke-width="4"/>
<line y1="-2" x2="117.902" y2="-2" transform="matrix(-0.00442928 0.99999 -0.999993 -0.00382337 297.144 76.6599)" stroke="#3D4877" stroke-width="4"/>
<line x1="394.71" y1="182.916" x2="394.71" y2="250.843" stroke="#3D4877" stroke-width="4"/>
<line y1="-2" x2="89.6246" y2="-2" transform="matrix(0.462364 0.88669 -0.911882 0.410453 65.7998 392.033)" stroke="#3D4877" stroke-width="4"/>
<line y1="-2" x2="161.064" y2="-2" transform="matrix(0.985668 -0.168695 0.194485 0.980906 155.622 333.325)" stroke="#3D4877" stroke-width="4"/>
<line y1="-2" x2="435.03" y2="-2" transform="matrix(0.960342 -0.278825 0.318801 0.947821 153.533 409.014)" stroke="#3D4877" stroke-width="4"/>
<line y1="-2" x2="231.86" y2="-2" transform="matrix(0.79957 0.600573 -0.656433 0.754385 247.533 335.751)" stroke="#3D4877" stroke-width="4"/>
<line y1="-2" x2="96.4467" y2="-2" transform="matrix(0.963801 0.266624 -0.305189 0.952292 386.444 102.375)" stroke="#3D4877" stroke-width="4"/>
<line y1="-2" x2="159.143" y2="-2" transform="matrix(0.00328146 0.999995 -0.999996 0.00283257 421.433 103.345)" stroke="#3D4877" stroke-width="4"/>
<line y1="-2" x2="210.231" y2="-2" transform="matrix(0.926545 -0.376185 0.425622 0.904901 476.266 134.883)" stroke="#3D4877" stroke-width="4"/>
<line y1="-2" x2="231.663" y2="-2" transform="matrix(0.98002 -0.198901 0.228878 0.973455 473.132 180.975)" stroke="#3D4877" stroke-width="4"/>
<line y1="-2" x2="211.875" y2="-2" transform="matrix(0.998217 0.0596861 -0.0691029 0.99761 473.132 236.772)" stroke="#3D4877" stroke-width="4"/>
<line y1="-2" x2="299.544" y2="-2" transform="matrix(0.991987 -0.126341 0.145965 0.98929 245.966 289.658)" stroke="#3D4877" stroke-width="4"/>
<line y1="-2" x2="42.6353" y2="-2" transform="matrix(0.992134 -0.12518 0.144631 0.989486 422.477 262.487)" stroke="#3D4877" stroke-width="4"/>
<line y1="-2" x2="198.201" y2="-2" transform="matrix(0.882661 0.47001 -0.52502 0.85109 257.977 275.587)" stroke="#3D4877" stroke-width="4"/>
<line y1="-2" x2="103.174" y2="-2" transform="matrix(0.906019 0.423237 -0.475945 0.879475 290.355 284.321)" stroke="#3D4877" stroke-width="4"/>
<line y1="-2" x2="39.3142" y2="-2" transform="matrix(-0.0265666 0.999647 -0.999737 -0.0229344 383.31 326.532)" stroke="#3D4877" stroke-width="4"/>
<line y1="-2" x2="208.971" y2="-2" transform="matrix(0.972116 -0.234502 0.269145 0.9631 383.833 327.988)" stroke="#3D4877" stroke-width="4"/>
<line y1="-2" x2="133.916" y2="-2" transform="matrix(-0.00758083 0.999971 -0.999979 -0.00654384 464.777 123.238)" stroke="#3D4877" stroke-width="4"/>
<line y1="-2" x2="62.5915" y2="-2" transform="matrix(-0.00834332 0.999965 -0.999974 -0.00720204 404.722 120.327)" stroke="#3D4877" stroke-width="4"/>
<line x1="399.932" y1="336.686" x2="399.932" y2="448.279" stroke="#3D4877" stroke-width="4"/>
<line x1="413.249" y1="332.35" x2="413.249" y2="458.499" stroke="#3D4877" stroke-width="4"/>
<line y1="-2" x2="80.0562" y2="-2" transform="matrix(-0.00332167 0.999994 -0.999996 -0.00286728 313.594 304.206)" stroke="#3D4877" stroke-width="4"/>
<line y1="-2" x2="81.5103" y2="-2" transform="matrix(-0.000113616 1 -1 -9.80737e-05 324.299 311.006)" stroke="#3D4877" stroke-width="4"/>
<line y1="-2" x2="24.9054" y2="-2" transform="matrix(0.943567 0.331181 -0.376665 0.92635 393.233 236.287)" stroke="#3D4877" stroke-width="4"/>
<line x1="290.788" y1="282.865" x2="290.788" y2="291.113" stroke="#3D4877" stroke-width="4"/>
<path d="M398.977 336.964V447.587L412.294 457.776V333.082L398.977 336.964Z" fill="#3D4877" stroke="#3D4877"/>
<path d="M47.261 35.904V112.806L154.577 129.06V61.3764L47.261 34.9336V35.904Z" fill="#3D4877" stroke="#3D4877"/>
</g>
</svg>
