<svg width="402" height="135" viewBox="0 0 402 135" fill="none" xmlns="http://www.w3.org/2000/svg">
<rect x="0.5" y="7.5" width="51" height="59" fill="white"/>
<rect x="0.5" y="7.5" width="51" height="59" stroke="#3D4877"/>
<rect x="0.5" y="7.5" width="51" height="59" stroke="#3D4877"/>
<path d="M42.7168 18.2734L43.1562 27.5898H42.043C41.8281 25.9492 41.5352 24.7773 41.1641 24.0742C40.5586 22.9414 39.748 22.1113 38.7324 21.584C37.7363 21.0371 36.418 20.7637 34.7773 20.7637H29.1816V51.1152C29.1816 53.5566 29.4453 55.0801 29.9727 55.6855C30.7148 56.5059 31.8574 56.916 33.4004 56.916H34.7773V58H17.9316V56.916H19.3379C21.0176 56.916 22.209 56.4082 22.9121 55.3926C23.3418 54.7676 23.5566 53.3418 23.5566 51.1152V20.7637H18.7812C16.9258 20.7637 15.6074 20.9004 14.8262 21.1738C13.8105 21.5449 12.9414 22.2578 12.2188 23.3125C11.4961 24.3672 11.0664 25.793 10.9297 27.5898H9.81641L10.2852 18.2734H42.7168Z" fill="#3D4877"/>
<path d="M95.7168 15.2734L96.1562 24.5898H95.043C94.8281 22.9492 94.5352 21.7773 94.1641 21.0742C93.5586 19.9414 92.748 19.1113 91.7324 18.584C90.7363 18.0371 89.418 17.7637 87.7773 17.7637H82.1816V48.1152C82.1816 50.5566 82.4453 52.0801 82.9727 52.6855C83.7148 53.5059 84.8574 53.916 86.4004 53.916H87.7773V55H70.9316V53.916H72.3379C74.0176 53.916 75.209 53.4082 75.9121 52.3926C76.3418 51.7676 76.5566 50.3418 76.5566 48.1152V17.7637H71.7812C69.9258 17.7637 68.6074 17.9004 67.8262 18.1738C66.8105 18.5449 65.9414 19.2578 65.2188 20.3125C64.4961 21.3672 64.0664 22.793 63.9297 24.5898H62.8164L63.2852 15.2734H95.7168ZM110.219 17.4414V33.1445H118.949C121.215 33.1445 122.729 32.8027 123.49 32.1191C124.506 31.2207 125.072 29.6387 125.189 27.373H126.273V41.2012H125.189C124.916 39.2676 124.643 38.0273 124.369 37.4805C124.018 36.7969 123.441 36.2598 122.641 35.8691C121.84 35.4785 120.609 35.2832 118.949 35.2832H110.219V48.3789C110.219 50.1367 110.297 51.2109 110.453 51.6016C110.609 51.9727 110.883 52.2754 111.273 52.5098C111.664 52.7246 112.406 52.832 113.5 52.832H120.238C122.484 52.832 124.115 52.6758 125.131 52.3633C126.146 52.0508 127.123 51.4355 128.061 50.5176C129.271 49.3066 130.512 47.4805 131.781 45.0391H132.953L129.525 55H98.9102V53.916H100.316C101.254 53.916 102.143 53.6914 102.982 53.2422C103.607 52.9297 104.027 52.4609 104.242 51.8359C104.477 51.2109 104.594 49.9316 104.594 47.998V22.1875C104.594 19.668 104.34 18.1152 103.832 17.5293C103.129 16.748 101.957 16.3574 100.316 16.3574H98.9102V15.2734H129.525L129.965 23.9746H128.822C128.412 21.8848 127.953 20.4492 127.445 19.668C126.957 18.8867 126.225 18.291 125.248 17.8809C124.467 17.5879 123.09 17.4414 121.117 17.4414H110.219ZM185.15 14.3652C190.307 14.3652 194.77 16.3281 198.539 20.2539C202.328 24.1602 204.223 29.043 204.223 34.9023C204.223 40.9375 202.318 45.9473 198.51 49.9316C194.701 53.916 190.092 55.9082 184.682 55.9082C179.213 55.9082 174.613 53.9648 170.883 50.0781C167.172 46.1914 165.316 41.1621 165.316 34.9902C165.316 28.6816 167.465 23.5352 171.762 19.5508C175.492 16.0938 179.955 14.3652 185.15 14.3652ZM184.594 16.5039C181.039 16.5039 178.188 17.8223 176.039 20.459C173.363 23.7402 172.025 28.5449 172.025 34.873C172.025 41.3574 173.412 46.3477 176.186 49.8438C178.314 52.5 181.127 53.8281 184.623 53.8281C188.354 53.8281 191.43 52.373 193.852 49.4629C196.293 46.5527 197.514 41.9629 197.514 35.6934C197.514 28.8965 196.176 23.8281 193.5 20.4883C191.352 17.832 188.383 16.5039 184.594 16.5039ZM241.078 15.2734L214.975 52.5977H231.264C233.764 52.5977 235.678 52.0508 237.006 50.957C238.354 49.8633 239.545 47.6465 240.58 44.3066L241.547 44.4824L239.672 55H207.328V53.916L232.816 17.6465H220.102C217.992 17.6465 216.459 17.8809 215.502 18.3496C214.564 18.7988 213.842 19.4629 213.334 20.3418C212.846 21.2012 212.396 22.8223 211.986 25.2051H210.873L211.693 15.2734H241.078ZM261.762 53.916V55H244.74V53.916H246.146C247.787 53.916 248.979 53.4375 249.721 52.4805C250.189 51.8555 250.424 50.3516 250.424 47.9688V22.3047C250.424 20.293 250.297 18.9648 250.043 18.3203C249.848 17.832 249.447 17.4121 248.842 17.0605C247.982 16.5918 247.084 16.3574 246.146 16.3574H244.74V15.2734H261.762V16.3574H260.326C258.705 16.3574 257.523 16.8359 256.781 17.793C256.293 18.418 256.049 19.9219 256.049 22.3047V47.9688C256.049 49.9805 256.176 51.3086 256.43 51.9531C256.625 52.4414 257.035 52.8613 257.66 53.2129C258.5 53.6816 259.389 53.916 260.326 53.916H261.762Z" fill="white"/>
<path d="M163.059 43.45C163.386 42.9833 163.853 42.1667 164.459 41C165.953 38.34 166.839 37.01 167.119 37.01C167.446 37.01 167.609 37.1967 167.609 37.57C167.609 39.8567 166.419 42.75 164.039 46.25C159.746 52.55 154.029 55.7 146.889 55.7C144.883 55.7 143.039 55.2333 141.359 54.3C139.679 53.3667 138.349 52.1767 137.369 50.73C135.363 47.79 134.359 44.71 134.359 41.49C134.359 33.37 136.459 26.8367 140.659 21.89C144.906 16.8967 149.923 14.4 155.709 14.4C157.903 14.4 159.699 15.0533 161.099 16.36C162.499 17.62 163.199 19.23 163.199 21.19C163.199 23.15 162.709 24.97 161.729 26.65C160.749 28.33 159.559 29.17 158.159 29.17C156.806 29.17 156.129 28.7967 156.129 28.05C156.129 27.21 156.573 26.2533 157.459 25.18C158.393 24.1067 158.859 23.0333 158.859 21.96C158.859 18.6467 157.086 16.99 153.539 16.99C150.039 16.99 146.866 19.3467 144.019 24.06C141.173 28.7733 139.749 33.6267 139.749 38.62C139.749 42.0733 140.729 45.1533 142.689 47.86C144.649 50.52 147.403 51.85 150.949 51.85C155.149 51.85 159.186 49.05 163.059 43.45Z" fill="#BF0404"/>
<path d="M14.6133 85.4233L14.9614 90.6006H14.6133C14.1491 89.0508 13.4865 87.9352 12.6255 87.2539C11.7645 86.5726 10.7313 86.2319 9.52588 86.2319C8.51514 86.2319 7.60173 86.4902 6.78564 87.0068C5.96956 87.516 5.32568 88.332 4.854 89.4551C4.38981 90.5781 4.15771 91.9744 4.15771 93.644C4.15771 95.0216 4.37858 96.2158 4.82031 97.2266C5.26204 98.2373 5.92464 99.0122 6.80811 99.5513C7.69906 100.09 8.71354 100.36 9.85156 100.36C10.8398 100.36 11.7121 100.15 12.4683 99.731C13.2244 99.3042 14.0555 98.4619 14.9614 97.2041L15.3096 97.4287C14.5459 98.7839 13.6549 99.7759 12.6367 100.405C11.6185 101.034 10.4093 101.348 9.00928 101.348C6.48617 101.348 4.53206 100.412 3.14697 98.5405C2.11377 97.1479 1.59717 95.5083 1.59717 93.6216C1.59717 92.1017 1.93783 90.7054 2.61914 89.4326C3.30046 88.1598 4.23633 87.1753 5.42676 86.479C6.62467 85.7752 7.93115 85.4233 9.34619 85.4233C10.4468 85.4233 11.5324 85.6929 12.603 86.2319C12.9175 86.3966 13.1421 86.479 13.2769 86.479C13.479 86.479 13.6549 86.4079 13.8047 86.2656C13.9993 86.0635 14.1379 85.7827 14.2202 85.4233H14.6133ZM24.5186 85.4233C26.4951 85.4233 28.2059 86.1758 29.6509 87.6807C31.1034 89.1781 31.8296 91.0498 31.8296 93.2959C31.8296 95.6094 31.0996 97.5298 29.6396 99.0571C28.1797 100.584 26.4128 101.348 24.3389 101.348C22.2425 101.348 20.4793 100.603 19.0493 99.1133C17.6268 97.6234 16.9155 95.6955 16.9155 93.3296C16.9155 90.9113 17.7391 88.9385 19.3862 87.4111C20.8162 86.0859 22.527 85.4233 24.5186 85.4233ZM24.3052 86.2432C22.9425 86.2432 21.8494 86.7485 21.0259 87.7593C20.0002 89.0171 19.4873 90.8589 19.4873 93.2847C19.4873 95.7703 20.0189 97.6833 21.082 99.0234C21.8981 100.042 22.9762 100.551 24.3164 100.551C25.7464 100.551 26.9256 99.993 27.854 98.8774C28.7899 97.7619 29.2578 96.0024 29.2578 93.5991C29.2578 90.9937 28.745 89.0508 27.7192 87.7705C26.8957 86.7523 25.7576 86.2432 24.3052 86.2432ZM45.9575 85.7715L35.9512 100.079H42.1953C43.1536 100.079 43.8874 99.8695 44.3965 99.4502C44.9131 99.0309 45.3698 98.1812 45.7666 96.9009L46.1372 96.9683L45.4185 101H33.02V100.584L42.7905 86.6812H37.9165C37.1079 86.6812 36.5202 86.771 36.1533 86.9507C35.7939 87.1229 35.5169 87.3774 35.3223 87.7144C35.1351 88.0438 34.9629 88.6652 34.8057 89.5786H34.3789L34.6934 85.7715H45.9575ZM53.8862 100.584V101H47.3613V100.584H47.9004C48.5293 100.584 48.986 100.401 49.2705 100.034C49.4502 99.7946 49.54 99.2181 49.54 98.3047V88.4668C49.54 87.6956 49.4914 87.1865 49.394 86.9395C49.3192 86.7523 49.1657 86.5913 48.9336 86.4565C48.6042 86.2769 48.2598 86.187 47.9004 86.187H47.3613V85.7715H53.8862V86.187H53.3359C52.7145 86.187 52.2616 86.3704 51.9771 86.7373C51.7899 86.9769 51.6963 87.5534 51.6963 88.4668V98.3047C51.6963 99.0758 51.745 99.585 51.8423 99.832C51.9172 100.019 52.0744 100.18 52.314 100.315C52.6359 100.495 52.9766 100.584 53.3359 100.584H53.8862ZM54.1445 85.7715H58.2773L67.5874 97.1929V88.4106C67.5874 87.4748 67.4826 86.8908 67.2729 86.6587C66.9959 86.3442 66.5579 86.187 65.959 86.187H65.4312V85.7715H70.7319V86.187H70.1929C69.549 86.187 69.0923 86.3817 68.8228 86.771C68.658 87.0106 68.5757 87.5571 68.5757 88.4106V101.247H68.1714L58.1313 88.9834V98.3608C58.1313 99.2967 58.2324 99.8807 58.4346 100.113C58.7191 100.427 59.1571 100.584 59.7485 100.584H60.2876V101H54.9868V100.584H55.5146C56.166 100.584 56.6265 100.39 56.896 100C57.0607 99.7609 57.1431 99.2144 57.1431 98.3608V87.7705C56.7013 87.2539 56.3644 86.9132 56.1323 86.7485C55.9077 86.5838 55.5745 86.4303 55.1328 86.2881C54.9157 86.2207 54.5863 86.187 54.1445 86.187V85.7715ZM75.7969 92.8354H82.8721V88.478C82.8721 87.6994 82.8234 87.1865 82.7261 86.9395C82.6512 86.7523 82.494 86.5913 82.2544 86.4565C81.9325 86.2769 81.5918 86.187 81.2324 86.187H80.6934V85.7715H87.207V86.187H86.668C86.3086 86.187 85.9679 86.2731 85.646 86.4453C85.4064 86.5651 85.2417 86.7485 85.1519 86.9956C85.0695 87.2352 85.0283 87.7293 85.0283 88.478V98.3047C85.0283 99.0758 85.077 99.585 85.1743 99.832C85.2492 100.019 85.4027 100.18 85.6348 100.315C85.9642 100.495 86.3086 100.584 86.668 100.584H87.207V101H80.6934V100.584H81.2324C81.8538 100.584 82.3068 100.401 82.5913 100.034C82.7785 99.7946 82.8721 99.2181 82.8721 98.3047V93.6665H75.7969V98.3047C75.7969 99.0758 75.8455 99.585 75.9429 99.832C76.0177 100.019 76.175 100.18 76.4146 100.315C76.7365 100.495 77.0771 100.584 77.4365 100.584H77.9868V101H71.4619V100.584H72.001C72.6299 100.584 73.0866 100.401 73.3711 100.034C73.5508 99.7946 73.6406 99.2181 73.6406 98.3047V88.478C73.6406 87.6994 73.592 87.1865 73.4946 86.9395C73.4198 86.7523 73.2663 86.5913 73.0342 86.4565C72.7048 86.2769 72.3604 86.187 72.001 86.187H71.4619V85.7715H77.9868V86.187H77.4365C77.0771 86.187 76.7365 86.2731 76.4146 86.4453C76.1825 86.5651 76.0215 86.7485 75.9316 86.9956C75.8418 87.2352 75.7969 87.7293 75.7969 88.478V92.8354ZM98.2129 95.9014H92.3169L91.2837 98.3047C91.0291 98.8962 90.9019 99.3379 90.9019 99.6299C90.9019 99.862 91.0104 100.068 91.2275 100.248C91.4521 100.42 91.9313 100.532 92.665 100.584V101H87.8696V100.584C88.506 100.472 88.9178 100.326 89.105 100.146C89.4868 99.7871 89.9098 99.0571 90.374 97.9565L95.731 85.4233H96.124L101.425 98.0913C101.852 99.1095 102.237 99.7721 102.582 100.079C102.933 100.379 103.42 100.547 104.042 100.584V101H98.0332V100.584C98.6396 100.555 99.0477 100.453 99.2573 100.281C99.4744 100.109 99.583 99.8994 99.583 99.6523C99.583 99.3229 99.4333 98.8026 99.1338 98.0913L98.2129 95.9014ZM97.8984 95.0703L95.3154 88.916L92.665 95.0703H97.8984ZM114.856 85.4233V90.6904H114.441C114.306 89.6797 114.063 88.8748 113.711 88.2759C113.367 87.6769 112.872 87.2015 112.229 86.8496C111.585 86.4977 110.918 86.3218 110.229 86.3218C109.451 86.3218 108.807 86.5614 108.298 87.0405C107.789 87.5122 107.534 88.0513 107.534 88.6577C107.534 89.1219 107.695 89.5449 108.017 89.9268C108.481 90.4883 109.586 91.237 111.33 92.1729C112.753 92.9365 113.722 93.5243 114.239 93.936C114.763 94.3403 115.163 94.8195 115.44 95.3735C115.725 95.9276 115.867 96.5078 115.867 97.1143C115.867 98.2673 115.418 99.263 114.52 100.102C113.629 100.933 112.479 101.348 111.072 101.348C110.63 101.348 110.215 101.314 109.825 101.247C109.593 101.21 109.11 101.075 108.376 100.843C107.65 100.603 107.19 100.483 106.995 100.483C106.808 100.483 106.658 100.54 106.546 100.652C106.441 100.764 106.362 100.996 106.31 101.348H105.895V96.126H106.31C106.505 97.2191 106.767 98.0389 107.096 98.5854C107.426 99.1245 107.927 99.5737 108.601 99.9331C109.282 100.292 110.027 100.472 110.836 100.472C111.772 100.472 112.509 100.225 113.048 99.731C113.595 99.2368 113.868 98.6528 113.868 97.979C113.868 97.6047 113.763 97.2266 113.554 96.8447C113.352 96.4629 113.033 96.1073 112.599 95.7778C112.307 95.5532 111.51 95.0778 110.207 94.3516C108.904 93.6178 107.976 93.0339 107.422 92.5996C106.875 92.1654 106.46 91.6862 106.175 91.1621C105.891 90.638 105.749 90.0615 105.749 89.4326C105.749 88.3395 106.168 87.3999 107.006 86.6138C107.845 85.8201 108.912 85.4233 110.207 85.4233C111.016 85.4233 111.873 85.6217 112.779 86.0186C113.198 86.2057 113.494 86.2993 113.666 86.2993C113.861 86.2993 114.018 86.2432 114.138 86.1309C114.265 86.0111 114.366 85.7752 114.441 85.4233H114.856ZM149.907 101H145.841L140.687 93.8799C140.305 93.8949 139.994 93.9023 139.754 93.9023C139.657 93.9023 139.552 93.9023 139.44 93.9023C139.328 93.8949 139.212 93.8874 139.092 93.8799V98.3047C139.092 99.263 139.197 99.8582 139.406 100.09C139.691 100.42 140.118 100.584 140.687 100.584H141.282V101H134.757V100.584H135.33C135.973 100.584 136.434 100.375 136.711 99.9556C136.868 99.7235 136.947 99.1732 136.947 98.3047V88.4668C136.947 87.5085 136.842 86.9132 136.632 86.6812C136.34 86.3517 135.906 86.187 135.33 86.187H134.757V85.7715H140.305C141.922 85.7715 143.112 85.8913 143.876 86.1309C144.647 86.363 145.299 86.7972 145.83 87.4336C146.369 88.0625 146.639 88.8149 146.639 89.6909C146.639 90.6268 146.332 91.4391 145.718 92.1279C145.111 92.8167 144.168 93.3034 142.888 93.5879L146.032 97.9565C146.751 98.9598 147.369 99.6261 147.885 99.9556C148.402 100.285 149.076 100.495 149.907 100.584V101ZM139.092 93.1724C139.234 93.1724 139.358 93.1761 139.462 93.1836C139.567 93.1836 139.653 93.1836 139.721 93.1836C141.173 93.1836 142.266 92.8691 143 92.2402C143.741 91.6113 144.112 90.8102 144.112 89.8369C144.112 88.8861 143.812 88.1149 143.213 87.5234C142.622 86.9245 141.836 86.625 140.855 86.625C140.421 86.625 139.833 86.6961 139.092 86.8384V93.1724ZM158.116 85.4233C160.093 85.4233 161.804 86.1758 163.249 87.6807C164.701 89.1781 165.427 91.0498 165.427 93.2959C165.427 95.6094 164.697 97.5298 163.237 99.0571C161.777 100.584 160.01 101.348 157.937 101.348C155.84 101.348 154.077 100.603 152.647 99.1133C151.224 97.6234 150.513 95.6955 150.513 93.3296C150.513 90.9113 151.337 88.9385 152.984 87.4111C154.414 86.0859 156.125 85.4233 158.116 85.4233ZM157.903 86.2432C156.54 86.2432 155.447 86.7485 154.624 87.7593C153.598 89.0171 153.085 90.8589 153.085 93.2847C153.085 95.7703 153.617 97.6833 154.68 99.0234C155.496 100.042 156.574 100.551 157.914 100.551C159.344 100.551 160.523 99.993 161.452 98.8774C162.388 97.7619 162.855 96.0024 162.855 93.5991C162.855 90.9937 162.343 89.0508 161.317 87.7705C160.493 86.7523 159.355 86.2432 157.903 86.2432ZM177.298 86.187V85.7715H182.688V86.187H182.116C181.517 86.187 181.056 86.4378 180.734 86.9395C180.577 87.1715 180.499 87.7106 180.499 88.5566V94.7334C180.499 96.2607 180.345 97.4474 180.038 98.2935C179.739 99.132 179.143 99.8545 178.252 100.461C177.369 101.06 176.164 101.359 174.636 101.359C172.974 101.359 171.713 101.071 170.852 100.495C169.991 99.9181 169.38 99.1432 169.021 98.1699C168.781 97.5036 168.662 96.2533 168.662 94.4189V88.4668C168.662 87.5309 168.531 86.917 168.269 86.625C168.014 86.333 167.598 86.187 167.022 86.187H166.449V85.7715H173.03V86.187H172.446C171.817 86.187 171.368 86.3854 171.099 86.7822C170.911 87.0518 170.818 87.6133 170.818 88.4668V95.104C170.818 95.6955 170.87 96.373 170.975 97.1367C171.087 97.9004 171.286 98.4956 171.57 98.9224C171.855 99.3491 172.263 99.701 172.794 99.978C173.333 100.255 173.992 100.394 174.771 100.394C175.767 100.394 176.658 100.176 177.444 99.7422C178.23 99.3079 178.765 98.7539 179.05 98.0801C179.342 97.3988 179.488 96.2495 179.488 94.6323V88.4668C179.488 87.516 179.383 86.9207 179.173 86.6812C178.881 86.3517 178.447 86.187 177.871 86.187H177.298ZM187.664 93.8687V98.3047C187.664 99.263 187.768 99.8582 187.978 100.09C188.263 100.42 188.693 100.584 189.27 100.584H189.854V101H183.329V100.584H183.901C184.545 100.584 185.006 100.375 185.283 99.9556C185.432 99.7235 185.507 99.1732 185.507 98.3047V88.4668C185.507 87.5085 185.406 86.9132 185.204 86.6812C184.912 86.3517 184.478 86.187 183.901 86.187H183.329V85.7715H188.91C190.273 85.7715 191.347 85.9137 192.133 86.1982C192.919 86.4753 193.582 86.9469 194.121 87.6133C194.66 88.2796 194.93 89.0695 194.93 89.9829C194.93 91.2257 194.518 92.2365 193.694 93.0151C192.878 93.7938 191.722 94.1831 190.224 94.1831C189.857 94.1831 189.46 94.1569 189.034 94.1045C188.607 94.0521 188.15 93.9735 187.664 93.8687ZM187.664 93.2285C188.06 93.3034 188.412 93.3595 188.719 93.397C189.026 93.4344 189.288 93.4531 189.505 93.4531C190.284 93.4531 190.954 93.1536 191.516 92.5547C192.085 91.9482 192.369 91.1659 192.369 90.2075C192.369 89.5487 192.234 88.9385 191.965 88.377C191.695 87.8079 191.313 87.3849 190.819 87.1079C190.325 86.8234 189.764 86.6812 189.135 86.6812C188.753 86.6812 188.263 86.7523 187.664 86.8945V93.2285ZM200.556 86.6025V92.6221H203.903C204.771 92.6221 205.352 92.491 205.644 92.229C206.033 91.8846 206.25 91.2782 206.295 90.4097H206.71V95.7104H206.295C206.19 94.9692 206.085 94.4938 205.98 94.2842C205.846 94.0221 205.625 93.8162 205.318 93.6665C205.011 93.5168 204.539 93.4419 203.903 93.4419H200.556V98.4619C200.556 99.1357 200.586 99.5475 200.646 99.6973C200.706 99.8395 200.811 99.9556 200.96 100.045C201.11 100.128 201.395 100.169 201.814 100.169H204.397C205.258 100.169 205.883 100.109 206.272 99.9893C206.662 99.8695 207.036 99.6336 207.396 99.2817C207.86 98.8175 208.335 98.1175 208.822 97.1816H209.271L207.957 101H196.221V100.584H196.76C197.12 100.584 197.46 100.498 197.782 100.326C198.022 100.206 198.183 100.027 198.265 99.7871C198.355 99.5475 198.4 99.0571 198.4 98.3159V88.4219C198.4 87.4561 198.303 86.8608 198.108 86.6362C197.838 86.3368 197.389 86.187 196.76 86.187H196.221V85.7715H207.957L208.125 89.1069H207.688C207.53 88.3058 207.354 87.7555 207.16 87.4561C206.972 87.1566 206.692 86.9282 206.317 86.771C206.018 86.6587 205.49 86.6025 204.734 86.6025H200.556ZM216.908 100.584V101H210.383V100.584H210.922C211.551 100.584 212.007 100.401 212.292 100.034C212.472 99.7946 212.562 99.2181 212.562 98.3047V88.4668C212.562 87.6956 212.513 87.1865 212.416 86.9395C212.341 86.7523 212.187 86.5913 211.955 86.4565C211.626 86.2769 211.281 86.187 210.922 86.187H210.383V85.7715H216.908V86.187H216.357C215.736 86.187 215.283 86.3704 214.999 86.7373C214.811 86.9769 214.718 87.5534 214.718 88.4668V98.3047C214.718 99.0758 214.766 99.585 214.864 99.832C214.939 100.019 215.096 100.18 215.335 100.315C215.657 100.495 215.998 100.584 216.357 100.584H216.908ZM233.012 101H228.947L223.792 93.8799C223.41 93.8949 223.099 93.9023 222.86 93.9023C222.763 93.9023 222.658 93.9023 222.545 93.9023C222.433 93.8949 222.317 93.8874 222.197 93.8799V98.3047C222.197 99.263 222.302 99.8582 222.512 100.09C222.796 100.42 223.223 100.584 223.792 100.584H224.387V101H217.862V100.584H218.435C219.079 100.584 219.539 100.375 219.816 99.9556C219.974 99.7235 220.052 99.1732 220.052 98.3047V88.4668C220.052 87.5085 219.947 86.9132 219.738 86.6812C219.446 86.3517 219.012 86.187 218.435 86.187H217.862V85.7715H223.41C225.027 85.7715 226.218 85.8913 226.981 86.1309C227.753 86.363 228.404 86.7972 228.936 87.4336C229.475 88.0625 229.744 88.8149 229.744 89.6909C229.744 90.6268 229.437 91.4391 228.823 92.1279C228.217 92.8167 227.273 93.3034 225.993 93.5879L229.138 97.9565C229.856 98.9598 230.474 99.6261 230.991 99.9556C231.507 100.285 232.181 100.495 233.012 100.584V101ZM222.197 93.1724C222.34 93.1724 222.463 93.1761 222.568 93.1836C222.673 93.1836 222.759 93.1836 222.826 93.1836C224.279 93.1836 225.372 92.8691 226.105 92.2402C226.847 91.6113 227.217 90.8102 227.217 89.8369C227.217 88.8861 226.918 88.1149 226.319 87.5234C225.727 86.9245 224.941 86.625 223.96 86.625C223.526 86.625 222.938 86.6961 222.197 86.8384V93.1724ZM241.222 85.4233C243.198 85.4233 244.909 86.1758 246.354 87.6807C247.806 89.1781 248.533 91.0498 248.533 93.2959C248.533 95.6094 247.803 97.5298 246.343 99.0571C244.883 100.584 243.116 101.348 241.042 101.348C238.946 101.348 237.182 100.603 235.752 99.1133C234.33 97.6234 233.619 95.6955 233.619 93.3296C233.619 90.9113 234.442 88.9385 236.089 87.4111C237.519 86.0859 239.23 85.4233 241.222 85.4233ZM241.008 86.2432C239.646 86.2432 238.553 86.7485 237.729 87.7593C236.703 89.0171 236.19 90.8589 236.19 93.2847C236.19 95.7703 236.722 97.6833 237.785 99.0234C238.601 100.042 239.679 100.551 241.02 100.551C242.45 100.551 243.629 99.993 244.557 98.8774C245.493 97.7619 245.961 96.0024 245.961 93.5991C245.961 90.9937 245.448 89.0508 244.422 87.7705C243.599 86.7523 242.461 86.2432 241.008 86.2432ZM259.977 85.4233V90.6904H259.561C259.426 89.6797 259.183 88.8748 258.831 88.2759C258.487 87.6769 257.993 87.2015 257.349 86.8496C256.705 86.4977 256.038 86.3218 255.35 86.3218C254.571 86.3218 253.927 86.5614 253.418 87.0405C252.909 87.5122 252.654 88.0513 252.654 88.6577C252.654 89.1219 252.815 89.5449 253.137 89.9268C253.601 90.4883 254.706 91.237 256.45 92.1729C257.873 92.9365 258.842 93.5243 259.359 93.936C259.883 94.3403 260.284 94.8195 260.561 95.3735C260.845 95.9276 260.987 96.5078 260.987 97.1143C260.987 98.2673 260.538 99.263 259.64 100.102C258.749 100.933 257.599 101.348 256.192 101.348C255.75 101.348 255.335 101.314 254.945 101.247C254.713 101.21 254.23 101.075 253.497 100.843C252.77 100.603 252.31 100.483 252.115 100.483C251.928 100.483 251.778 100.54 251.666 100.652C251.561 100.764 251.483 100.996 251.43 101.348H251.015V96.126H251.43C251.625 97.2191 251.887 98.0389 252.216 98.5854C252.546 99.1245 253.047 99.5737 253.721 99.9331C254.403 100.292 255.147 100.472 255.956 100.472C256.892 100.472 257.629 100.225 258.168 99.731C258.715 99.2368 258.988 98.6528 258.988 97.979C258.988 97.6047 258.883 97.2266 258.674 96.8447C258.472 96.4629 258.153 96.1073 257.719 95.7778C257.427 95.5532 256.63 95.0778 255.327 94.3516C254.024 93.6178 253.096 93.0339 252.542 92.5996C251.995 92.1654 251.58 91.6862 251.295 91.1621C251.011 90.638 250.869 90.0615 250.869 89.4326C250.869 88.3395 251.288 87.3999 252.126 86.6138C252.965 85.8201 254.032 85.4233 255.327 85.4233C256.136 85.4233 256.993 85.6217 257.899 86.0186C258.318 86.2057 258.614 86.2993 258.786 86.2993C258.981 86.2993 259.138 86.2432 259.258 86.1309C259.385 86.0111 259.486 85.7752 259.561 85.4233H259.977Z" fill="white"/>
<circle cx="125.5" cy="93.5" r="3.5" fill="#BF0404"/>
</svg>
