<svg width="84" height="100" viewBox="0 0 84 100" fill="none" xmlns="http://www.w3.org/2000/svg">
<rect x="0.5" y="7.5" width="83" height="92" fill="white"/>
<rect x="0.5" y="7.5" width="83" height="92" stroke="#3D4877"/>
<rect x="0.5" y="7.5" width="83" height="92" stroke="#3D4877"/>
<path d="M67.3896 23.7617L68.0781 38.3574H66.334C65.9974 35.7871 65.5384 33.9512 64.957 32.8496C64.0085 31.0749 62.7386 29.7744 61.1475 28.9482C59.5869 28.0915 57.5215 27.6631 54.9512 27.6631H46.1846V75.2139C46.1846 79.0387 46.5977 81.4255 47.4238 82.374C48.5866 83.6592 50.3766 84.3018 52.7939 84.3018H54.9512V86H28.5596V84.3018H30.7627C33.3942 84.3018 35.2607 83.5062 36.3623 81.915C37.0355 80.9359 37.3721 78.7021 37.3721 75.2139V27.6631H29.8906C26.9837 27.6631 24.9183 27.8773 23.6943 28.3057C22.1032 28.887 20.7415 30.0039 19.6094 31.6562C18.4772 33.3086 17.804 35.5423 17.5898 38.3574H15.8457L16.5801 23.7617H67.3896Z" fill="#3D4877"/>
</svg>
