<svg width="1341" height="980" viewBox="0 0 1341 980" fill="none" xmlns="http://www.w3.org/2000/svg">
<path d="M559.5 585L735 675L1123 573L956.5 529L559.5 585Z" fill="white" stroke="white"/>
<path d="M1126 183.5L1121.5 324.5L1235.5 299.5V135.5L1126 183.5Z" fill="white" stroke="white"/>
<path d="M808.518 543L891.928 531.982L894 256.539L808 232L808.518 543Z" fill="white" stroke="white"/>
<path d="M601.5 793L603 630L623 639.5V811L601.5 793Z" fill="white" stroke="white"/>
<path d="M555.5 601V586L735.5 675.5L734 703.5L555.5 601Z" fill="white" stroke="white"/>
<path d="M90.5 537.5V725L296 694V528L90.5 537.5Z" fill="white" stroke="white"/>
<path d="M297 502V526.5L793.5 502L754.5 486.5L297 502Z" fill="white" stroke="white"/>
<path d="M571 200.5V358.5L775.5 378V254.5L571 200.5Z" fill="white" stroke="white"/>
<line x1="0.50935" y1="49.0659" x2="786.509" y2="256.066" stroke="white" stroke-width="4"/>
<line x1="89" y1="0.994975" x2="91" y2="796.995" stroke="white" stroke-width="4"/>
<line x1="0.31423" y1="220.025" x2="308.314" y2="269.025" stroke="white" stroke-width="4"/>
<line x1="296" y1="57.9972" x2="296.993" y2="760.997" stroke="white" stroke-width="4"/>
<line x1="55.907" y1="538.002" x2="807.907" y2="503.002" stroke="white" stroke-width="4"/>
<line x1="57.6928" y1="731.024" x2="295.693" y2="694.024" stroke="white" stroke-width="4"/>
<line x1="114.931" y1="508.001" x2="755.926" y2="485.863" stroke="white" stroke-width="4"/>
<line x1="487.188" y1="351.009" x2="805.188" y2="381.009" stroke="white" stroke-width="4"/>
<line x1="571" y1="159.008" x2="570" y2="402.008" stroke="white" stroke-width="4"/>
<line x1="754" y1="378" x2="754" y2="518" stroke="white" stroke-width="4"/>
<line x1="127.8" y1="808.128" x2="207.152" y2="971.918" stroke="white" stroke-width="4"/>
<line x1="297.638" y1="686.033" x2="601.638" y2="630.033" stroke="white" stroke-width="4"/>
<line x1="293.403" y1="842.091" x2="1093.4" y2="592.091" stroke="white" stroke-width="4"/>
<line x1="475.257" y1="691.445" x2="830.257" y2="978.445" stroke="white" stroke-width="4"/>
<line x1="1006" y1="303" x2="1006" y2="516" stroke="white" stroke-width="4"/>
<line x1="740.571" y1="210.083" x2="918.571" y2="263.083" stroke="white" stroke-width="4"/>
<line x1="809" y1="213.994" x2="810" y2="541.994" stroke="white" stroke-width="4"/>
<line x1="943" y1="225.986" x2="945" y2="501.986" stroke="white" stroke-width="4"/>
<line x1="911.199" y1="277.167" x2="1284.2" y2="114.167" stroke="white" stroke-width="4"/>
<line x1="1236" y1="81" x2="1236" y2="714" stroke="white" stroke-width="4"/>
<line x1="905.573" y1="372.046" x2="1340.32" y2="277.077" stroke="white" stroke-width="4"/>
<line x1="906.128" y1="487.004" x2="1311.12" y2="513.068" stroke="white" stroke-width="4"/>
<line x1="921.496" y1="520.063" x2="1202.5" y2="592.063" stroke="white" stroke-width="4"/>
<line x1="470.728" y1="596.019" x2="1039.73" y2="518.019" stroke="white" stroke-width="4"/>
<line x1="808.731" y1="540.018" x2="889.731" y2="529.018" stroke="white" stroke-width="4"/>
<line x1="494.995" y1="567.265" x2="829.995" y2="759.265" stroke="white" stroke-width="4"/>
<line x1="556.898" y1="585.213" x2="735.898" y2="675.213" stroke="white" stroke-width="4"/>
<line x1="940.798" y1="663.166" x2="1234.8" y2="791.166" stroke="white" stroke-width="4"/>
<line x1="1123" y1="518" x2="1123" y2="663" stroke="white" stroke-width="4"/>
<line x1="735.999" y1="674.049" x2="733.999" y2="755.049" stroke="white" stroke-width="4"/>
<line x1="734.497" y1="675.064" x2="1123.5" y2="574.064" stroke="white" stroke-width="4"/>
<line x1="892" y1="255.014" x2="890.056" y2="531.014" stroke="white" stroke-width="4"/>
<line x1="1126" y1="185.072" x2="1121" y2="324.072" stroke="white" stroke-width="4"/>
<line x1="777" y1="249.016" x2="776" y2="378.016" stroke="white" stroke-width="4"/>
<line x1="764" y1="694.928" x2="764" y2="924.928" stroke="white" stroke-width="4"/>
<line x1="789.5" y1="685.991" x2="789.5" y2="945.991" stroke="white" stroke-width="4"/>
<line x1="602.5" y1="627.992" x2="601.991" y2="792.991" stroke="white" stroke-width="4"/>
<line x1="623" y1="642" x2="622.982" y2="809.997" stroke="white" stroke-width="4"/>
<line x1="753.707" y1="486.129" x2="798.707" y2="503.129" stroke="white" stroke-width="4"/>
<line x1="555" y1="584" x2="555" y2="601" stroke="white" stroke-width="4"/>
<path d="M764 695.5V923.5L789.5 944.5V687.5L764 695.5Z" fill="white" stroke="white"/>
<path d="M90.5 75V233.5L296 267V127.5L90.5 73V75Z" fill="white" stroke="white"/>
</svg>
