<svg width="396" height="289" viewBox="0 0 396 289" fill="none" xmlns="http://www.w3.org/2000/svg">
<path d="M165.092 172.321L216.876 198.877L331.364 168.78L282.234 155.797L165.092 172.321Z" fill="white" stroke="white"/>
<path d="M332.249 53.8503L330.921 95.4551L364.559 88.0784V39.6869L332.249 53.8503Z" fill="white" stroke="white"/>
<path d="M238.57 159.928L263.181 156.677L263.793 75.402L238.417 68.1611L238.57 159.928Z" fill="white" stroke="white"/>
<path d="M177.485 233.696L177.927 185.599L183.829 188.402V239.007L177.485 233.696Z" fill="white" stroke="white"/>
<path d="M163.911 177.042V172.616L217.024 199.025L216.581 207.287L163.911 177.042Z" fill="white" stroke="white"/>
<path d="M26.7039 158.305V213.631L87.3408 204.484V155.502L26.7039 158.305Z" fill="white" stroke="white"/>
<path d="M87.6357 147.83V155.059L234.138 147.83L222.63 143.257L87.6357 147.83Z" fill="white" stroke="white"/>
<path d="M168.485 58.8665V105.488L228.827 111.241V74.8002L168.485 58.8665Z" fill="white" stroke="white"/>
<line x1="0.50935" y1="12.8194" x2="232.434" y2="73.8989" stroke="white" stroke-width="4"/>
<line x1="27.6711" y1="-0.00502511" x2="28.2613" y2="234.871" stroke="white" stroke-width="4"/>
<line x1="0.31423" y1="63.2353" x2="91.1958" y2="77.6937" stroke="white" stroke-width="4"/>
<line x1="88.7507" y1="16.8161" x2="89.0437" y2="224.25" stroke="white" stroke-width="4"/>
<line x1="16.4309" y1="157.045" x2="238.324" y2="146.717" stroke="white" stroke-width="4"/>
<line x1="16.8068" y1="214.015" x2="87.0335" y2="203.097" stroke="white" stroke-width="4"/>
<line x1="33.8641" y1="148.192" x2="223.003" y2="141.66" stroke="white" stroke-width="4"/>
<line x1="143.887" y1="101.873" x2="237.719" y2="110.726" stroke="white" stroke-width="4"/>
<line x1="169.895" y1="46.6293" x2="169.6" y2="118.331" stroke="white" stroke-width="4"/>
<line x1="223.893" y1="111.241" x2="223.893" y2="152.551" stroke="white" stroke-width="4"/>
<line x1="38.9788" y1="237.545" x2="62.3932" y2="285.874" stroke="white" stroke-width="4"/>
<line x1="87.5686" y1="200.746" x2="177.27" y2="184.222" stroke="white" stroke-width="4"/>
<line x1="86.1542" y1="246.835" x2="322.21" y2="173.067" stroke="white" stroke-width="4"/>
<line x1="141.121" y1="202.633" x2="245.871" y2="287.318" stroke="white" stroke-width="4"/>
<line x1="298.25" y1="89.1112" x2="298.25" y2="151.961" stroke="white" stroke-width="4"/>
<line x1="218.923" y1="60.3429" x2="271.445" y2="75.9816" stroke="white" stroke-width="4"/>
<line x1="240.122" y1="62.8438" x2="240.417" y2="159.627" stroke="white" stroke-width="4"/>
<line x1="279.661" y1="66.3763" x2="280.251" y2="147.816" stroke="white" stroke-width="4"/>
<line x1="268.303" y1="80.1968" x2="378.364" y2="32.1003" stroke="white" stroke-width="4"/>
<line x1="366.116" y1="23.6056" x2="366.116" y2="210.385" stroke="white" stroke-width="4"/>
<line x1="266.907" y1="108.107" x2="395.188" y2="80.0847" stroke="white" stroke-width="4"/>
<line x1="267.462" y1="141.998" x2="386.964" y2="149.689" stroke="white" stroke-width="4"/>
<line x1="272.256" y1="151.794" x2="355.171" y2="173.039" stroke="white" stroke-width="4"/>
<line x1="138.706" y1="174.175" x2="306.601" y2="151.16" stroke="white" stroke-width="4"/>
<line x1="238.443" y1="157.651" x2="262.343" y2="154.405" stroke="white" stroke-width="4"/>
<line x1="146.759" y1="165.865" x2="245.608" y2="222.518" stroke="white" stroke-width="4"/>
<line x1="164.957" y1="171.124" x2="217.775" y2="197.681" stroke="white" stroke-width="4"/>
<line x1="278.164" y1="194.093" x2="364.915" y2="231.862" stroke="white" stroke-width="4"/>
<line x1="332.774" y1="152.551" x2="332.774" y2="195.336" stroke="white" stroke-width="4"/>
<line x1="218.581" y1="198.632" x2="217.991" y2="222.532" stroke="white" stroke-width="4"/>
<line x1="216.374" y1="197.532" x2="331.156" y2="167.73" stroke="white" stroke-width="4"/>
<line x1="264.612" y1="74.9618" x2="264.039" y2="156.401" stroke="white" stroke-width="4"/>
<line x1="333.658" y1="54.3647" x2="332.182" y2="95.3795" stroke="white" stroke-width="4"/>
<line x1="230.679" y1="73.1929" x2="230.384" y2="111.257" stroke="white" stroke-width="4"/>
<line x1="226.843" y1="204.757" x2="226.843" y2="272.623" stroke="white" stroke-width="4"/>
<line x1="234.368" y1="202.12" x2="234.368" y2="278.839" stroke="white" stroke-width="4"/>
<line x1="179.19" y1="185.011" x2="179.039" y2="233.697" stroke="white" stroke-width="4"/>
<line x1="185.239" y1="189.14" x2="185.233" y2="238.711" stroke="white" stroke-width="4"/>
<line x1="222.894" y1="141.828" x2="236.173" y2="146.844" stroke="white" stroke-width="4"/>
<line x1="165.174" y1="172.026" x2="165.174" y2="177.042" stroke="white" stroke-width="4"/>
<path d="M225.433 204.926V272.202L232.958 278.399V202.566L225.433 204.926Z" fill="white" stroke="white"/>
<path d="M26.7039 21.8351V68.6037L87.3408 78.4886V37.3263L26.7039 21.245V21.8351Z" fill="white" stroke="white"/>
</svg>
