<svg width="65" height="63" viewBox="0 0 65 63" fill="none" xmlns="http://www.w3.org/2000/svg">
<rect x="0.5" y="0.5" width="54" height="62" fill="#3D4877"/>
<rect x="0.5" y="0.5" width="54" height="62" stroke="#3D4877"/>
<rect x="0.5" y="0.5" width="54" height="62" stroke="#3D4877"/>
<path d="M42.8237 14.584L43.2266 23.124H42.2061C42.0091 21.6201 41.7406 20.5459 41.4004 19.9014C40.8454 18.863 40.1024 18.1021 39.1714 17.6187C38.2583 17.1174 37.0498 16.8667 35.5459 16.8667H30.4165V44.689C30.4165 46.9269 30.6582 48.3234 31.1416 48.8784C31.8219 49.6304 32.8693 50.0063 34.2837 50.0063H35.5459V51H20.104V50.0063H21.3931C22.9328 50.0063 24.0249 49.5409 24.6694 48.6099C25.0633 48.0369 25.2603 46.73 25.2603 44.689V16.8667H20.8828C19.182 16.8667 17.9735 16.992 17.2573 17.2427C16.3263 17.5828 15.5296 18.2363 14.8672 19.2031C14.2048 20.1699 13.8109 21.4769 13.6855 23.124H12.665L13.0947 14.584H42.8237Z" fill="white"/>
</svg>
